<svg height='100px' width='100px'  fill="#000000" xmlns="http://www.w3.org/2000/svg" data-name="Layer 1" viewBox="0 0 128 128" x="0px" y="0px">
  <path d="M67.16439,23.70979l2.711-2.55246A1.9765,1.9765,0,0,0,70.24,18.74748L66.41931,12.168a1.96367,1.96367,0,0,0-2.25127-.91946l-4.35983,1.29993a5.91426,5.91426,0,0,1-4.64532-.63408.34646.34646,0,0,1-.07923-.04763,5.83322,5.83322,0,0,1-2.822-3.67812L51.19945,3.78134a1.96859,1.96859,0,0,0-1.91826-1.522H41.67128a1.96424,1.96424,0,0,0-1.90252,1.522L38.70647,8.18868a5.88631,5.88631,0,0,1-2.82192,3.67812l-.09515.04763a5.86712,5.86712,0,0,1-4.62929.63408l-4.35988-1.29993a1.98473,1.98473,0,0,0-2.26708.91946l-3.805,6.57944a1.97325,1.97325,0,0,0,.3487,2.40985l3.28179,3.1073a5.8711,5.8711,0,0,1,1.77566,4.35983v.04763a5.8114,5.8114,0,0,1-1.77566,4.344l-3.28179,3.1073a1.99606,1.99606,0,0,0-.3487,2.42571l3.805,6.57944a1.97611,1.97611,0,0,0,2.26708.9036l4.35988-1.29993a5.87237,5.87237,0,0,1,4.62929.64994l.09515.04763a5.88608,5.88608,0,0,1,2.82192,3.678l1.06229,4.40746a1.96423,1.96423,0,0,0,1.90252,1.52205h7.60991a1.96858,1.96858,0,0,0,1.91826-1.52205l.47567-1.99761c1.04632-8.98917,4.994-17.154,11.76364-24.3675A36.40734,36.40734,0,0,1,67.16439,23.70979ZM45.49206,39.81739a11.16909,11.16909,0,1,1,11.16111-11.177A11.19788,11.19788,0,0,1,45.49206,39.81739Z"></path>
  <path d="M40.86376,63.89118l-3.21813-.775a4.26923,4.26923,0,0,1-2.68672-2.05929c-.0148-.02221-.02215-.0443-.0369-.06646a4.2726,4.2726,0,0,1-.465-3.3879l.94475-3.18122a1.4467,1.4467,0,0,0-.66427-1.65335l-4.80507-2.77533a1.43378,1.43378,0,0,0-1.76411.251l-2.27337,2.39883a4.30381,4.30381,0,0,1-3.17388,1.29165h-.03691a4.3087,4.3087,0,0,1-3.18122-1.29165l-2.266-2.39883a1.43378,1.43378,0,0,0-1.76411-.251L10.66038,52.768a1.43333,1.43333,0,0,0-.65687,1.65335l.94476,3.18122a4.27522,4.27522,0,0,1-.47241,3.3879.29732.29732,0,0,1-.03691.06646,4.274,4.274,0,0,1-2.67931,2.05929l-3.22554.775A1.43574,1.43574,0,0,0,3.427,65.2862v5.558A1.42962,1.42962,0,0,0,4.5341,72.23923l3.22554.775A4.27382,4.27382,0,0,1,10.439,75.07351a.29623.29623,0,0,1,.03691.06646,4.29262,4.29262,0,0,1,.47241,3.39525l-.94476,3.17387a1.43336,1.43336,0,0,0,.65687,1.65335l4.81247,2.78268a1.44534,1.44534,0,0,0,1.76411-.25833l2.266-2.39883a4.33719,4.33719,0,0,1,3.18122-1.29171h.03691A4.33236,4.33236,0,0,1,25.89494,83.488l2.27337,2.39883a1.44534,1.44534,0,0,0,1.76411.25833l4.80507-2.78268a1.44673,1.44673,0,0,0,.66427-1.65335L34.457,78.53522A4.29412,4.29412,0,0,1,34.922,75.14c.01475-.02215.0221-.04431.0369-.06646a4.26907,4.26907,0,0,1,2.68672-2.05929l3.21813-.775a1.42962,1.42962,0,0,0,1.10713-1.39507v-5.558A1.43574,1.43574,0,0,0,40.86376,63.89118ZM22.699,76.22926a8.16405,8.16405,0,1,1,8.161-8.161A8.17284,8.17284,0,0,1,22.699,76.22926Z"></path>
  <path d="M104.15442,93.32984a15.74217,15.74217,0,0,0-6.97612,1.593,15.529,15.529,0,0,0-2.486,1.478,16.18492,16.18492,0,0,0-6.73831,13.129,9.82,9.82,0,0,1-4.08109,7.95084,9.3225,9.3225,0,0,1-1.50923.89929,9.56453,9.56453,0,0,1-4.22573.96586,9.81058,9.81058,0,0,1,0-19.62115,9.56364,9.56364,0,0,1,4.22573.96593l2.803-5.74744a15.90037,15.90037,0,0,0-7.0287-1.61329,16.20541,16.20541,0,0,0,0,32.41081,15.84761,15.84761,0,0,0,6.98655-1.593,15.55006,15.55006,0,0,0,2.49171-1.48211A16.22657,16.22657,0,0,0,94.3488,109.5298a9.7841,9.7841,0,0,1,4.0811-7.93995,9.321,9.321,0,0,1,1.51645-.90243,9.46249,9.46249,0,0,1,4.20807-.96278,9.81058,9.81058,0,1,1,0,19.62115,9.52735,9.52735,0,0,1-4.21483-.96586l-2.804,5.74743a15.87625,15.87625,0,0,0,7.01879,1.61329,16.20541,16.20541,0,1,0,0-32.41081Z"></path>
  <path d="M114.25067,31.49407c-12.25506-13.032-33.91165-13.06368-46.18262,0-8.59279,9.14775-12.00144,20.16625-9.57574,33.0713.95118,5.105,3.21831,9.65514,5.67573,14.0626,1.69631,3.01215,3.83664,5.97685,5.8659,9.005a23.22694,23.22694,0,0,1,8.10144-1.44277,22.96878,22.96878,0,0,1,10.16236,2.34642l3.05978,1.49022a23.17316,23.17316,0,0,1,2.79032-1.56956,22.81137,22.81137,0,0,1,10.00384-2.26708,23.22635,23.22635,0,0,1,8.10138,1.44277c2.02938-3.02819,4.16959-5.99289,5.866-9.005,2.48914-4.40746,4.75621-8.95758,5.70744-14.0626C126.2204,51.66032,122.81186,40.64182,114.25067,31.49407Zm1.90252,27.09445c-4.94645,7.78422-14.28444,13.03191-25.00176,13.03191S71.09624,66.37274,66.14979,58.58852a3.90456,3.90456,0,0,1,0-4.21722c4.94645-7.78423,14.28438-13.016,25.00164-13.016s20.05531,5.23182,25.00176,13.01605A3.9046,3.9046,0,0,1,116.15319,58.58852Z"></path>
  <path d="M91.15143,44.84844a11.63943,11.63943,0,1,0,11.64768,11.63112A11.64231,11.64231,0,0,0,91.15143,44.84844Zm0,19.13777a7.49838,7.49838,0,1,1,0-14.99675,7.316,7.316,0,0,1,2.49124.429A3.49119,3.49119,0,0,0,95.012,56.1167a3.51442,3.51442,0,0,0,3.2172-2.12838,7.82276,7.82276,0,0,1,.42886,2.49124A7.51272,7.51272,0,0,1,91.15143,63.98621Z"></path>
</svg>
