<svg xmlns="http://www.w3.org/2000/svg" data-name="Layer 1" viewBox="0 0 100 125" x="0px" y="0px"><title>Markerboard</title><path d="M90.79,34.84C90.11,29.08,85,25.23,79.44,25c-.81,0-.79,1.17,0,1.24,5.77.52,10.81,5.07,10,11.2-.89,6.35-8.54,8.87-14.14,7.81s-10.13-6.46-8.59-12.2c1.7-6.33,8.5-8.36,14.31-8.52a.6.6,0,0,0,0-1.19c-5.46.13-11.24,1.6-14.31,6.53a9.75,9.75,0,0,0-1.36,3.58c-6.19-1.33-12.46-2.23-18.72-3.14a.56.56,0,0,0-.29,0,12.5,12.5,0,0,0,.32-13.23C44.16,13,41.29,11,35.84,9.74c-2.45-.58-8.43.48-10.78,1.14-3.9,1.1-6.54,5.36-7.31,9.47-1,5.3,2,10.91,6.46,13.63A15.82,15.82,0,0,0,31,36.16c-.3,5.33-1,10.64-1.32,16a17.07,17.07,0,0,0-11.8,5.07.62.62,0,0,0,.87.88C24,52.91,33.3,51.85,39.44,56.22a18,18,0,0,1,5.79,21A19.31,19.31,0,0,1,30.77,88.85c-7.36,1.31-15.09-2-18.47-8.82-4.29-8.61-.72-17.35,5-24.15.49-.59-.35-1.44-.85-.85C11,61.45,7.33,69.34,10,77.85A18.19,18.19,0,0,0,28.37,90.41,20.43,20.43,0,0,0,45.84,79a18.83,18.83,0,0,0,1.84-6.15.78.78,0,0,0,.21,0c5-1.27,9.85-2.84,14.68-4.54A6.68,6.68,0,0,0,68,72.42c3.29.34,7.21-1.36,7.59-5a5.57,5.57,0,0,0-2.24-5.1.34.34,0,0,0,.06-.12c2-5,3.77-10.15,5.35-15.31a.79.79,0,0,0,0-.13C85.37,46.43,91.65,42.16,90.79,34.84ZM74.29,66.71c.1,3.21-3.4,4.66-6.16,4.36a5.21,5.21,0,0,1-4.4-3.4.55.55,0,0,0-.13-.49,4.43,4.43,0,0,1,0-1.54c.5-2.68,3-3.78,5.46-4.13a.54.54,0,0,0,.42.71C71.89,62.56,74.22,64,74.29,66.71ZM72.2,61.6a6.79,6.79,0,0,0-1.34-.44.59.59,0,0,0-.44-1c-3.45.12-7.47,1.46-8.13,5.35a5.31,5.31,0,0,0,0,1.78c-4.8,1.47-9.7,2.64-14.49,4.12a19.29,19.29,0,0,0-6-15.09,16.73,16.73,0,0,0-10.66-4.21c.58-5.28.83-10.61.94-15.92a20.29,20.29,0,0,0,7.24-1.09A14.31,14.31,0,0,0,46,30.82a.41.41,0,0,0,.35.49c6.3,1.1,12.54,2.51,18.84,3.56a11.43,11.43,0,0,0,3.11,8.07,13.11,13.11,0,0,0,9.51,3.85C76,51.77,73.94,56.63,72.2,61.6Z"/><text x="0" y="115" fill="#000000" font-size="5px" font-weight="bold" font-family="'Helvetica Neue', Helvetica, Arial-Unicode, Arial, Sans-serif">Created by Knockout Prezo</text><text x="0" y="120" fill="#000000" font-size="5px" font-weight="bold" font-family="'Helvetica Neue', Helvetica, Arial-Unicode, Arial, Sans-serif">from the Noun Project</text></svg>